<svg width="30" height="30" viewBox="0 0 30 30" fill="none" xmlns="http://www.w3.org/2000/svg">
<g clip-path="url(#clip0_94_1352)">
<mask id="mask0_94_1352" style="mask-type:luminance" maskUnits="userSpaceOnUse" x="2" y="2" width="26" height="26">
<path d="M2 2H28V28H2V2Z" fill="white"/>
</mask>
<g mask="url(#mask0_94_1352)">
<path d="M3.11328 5.28809V3.81802C3.11328 3.02441 3.75658 2.38116 4.55029 2.38116H20.4166C21.2102 2.38116 21.8536 3.02441 21.8536 3.81802V4.25636" stroke="white" stroke-miterlimit="10" stroke-linecap="round" stroke-linejoin="round"/>
<path d="M21.8536 18.5016V26.1823C21.8536 26.9759 21.2102 27.6191 20.4166 27.6191H4.55029C3.75658 27.6191 3.11328 26.9759 3.11328 26.1823V6.96494" stroke="white" stroke-miterlimit="10" stroke-linecap="round" stroke-linejoin="round"/>
<path d="M11.574 9.50811L10.8832 9.75841C10.3266 9.96021 9.9178 10.4404 9.80613 11.0214L9.65678 11.8038C9.54567 12.3818 9.98914 12.918 10.5779 12.918H12.4946H14.3893C14.9735 12.918 15.416 12.3899 15.313 11.815L15.1739 11.0372C15.0684 10.447 14.6565 9.95818 14.0932 9.75379L13.3759 9.49384" stroke="white" stroke-miterlimit="10" stroke-linecap="round" stroke-linejoin="round"/>
<path d="M13.0016 8.54012H13.3752V9.49425V9.74755V9.74811C12.8588 10.1986 12.0891 10.1986 11.5732 9.74755V9.50852V8.54012H11.9347" stroke="white" stroke-miterlimit="10" stroke-linecap="round" stroke-linejoin="round"/>
<path d="M13.906 6.15751V7.18111C13.906 7.98376 13.249 8.65976 12.4464 8.64427C11.6686 8.62929 11.043 7.99422 11.043 7.2131V6.15751C11.043 5.36705 11.6839 4.72614 12.4745 4.72614C13.2651 4.72614 13.906 5.36705 13.906 6.15751Z" stroke="white" stroke-miterlimit="10" stroke-linecap="round" stroke-linejoin="round"/>
<path d="M12.167 6.3619C12.4205 6.53973 12.9453 6.53171 13.482 6.31681C13.5995 6.26978 13.7098 6.21585 13.811 6.15735" stroke="white" stroke-miterlimit="10" stroke-linecap="round" stroke-linejoin="round"/>
<path d="M6.48242 19.4385H18.3434" stroke="white" stroke-miterlimit="10" stroke-linecap="round" stroke-linejoin="round"/>
<path d="M6.48242 21.4922H18.3434" stroke="white" stroke-miterlimit="10" stroke-linecap="round" stroke-linejoin="round"/>
<path d="M6.48242 23.5449H18.3434" stroke="white" stroke-miterlimit="10" stroke-linecap="round" stroke-linejoin="round"/>
<path d="M6.48242 25.5996H18.3434" stroke="white" stroke-miterlimit="10" stroke-linecap="round" stroke-linejoin="round"/>
<path d="M6.48242 15.3311H18.3434" stroke="white" stroke-miterlimit="10" stroke-linecap="round" stroke-linejoin="round"/>
<path d="M6.48242 17.3848H18.3434" stroke="white" stroke-miterlimit="10" stroke-linecap="round" stroke-linejoin="round"/>
<path d="M5.45802 19.439C5.45802 19.6501 5.28684 19.8213 5.07569 19.8213C4.86449 19.8213 4.69336 19.6501 4.69336 19.439C4.69336 19.2279 4.86449 19.0568 5.07569 19.0568C5.28684 19.0568 5.45802 19.2279 5.45802 19.439Z" fill="white"/>
<path d="M5.45802 15.3307C5.45802 15.5418 5.28684 15.7129 5.07569 15.7129C4.86449 15.7129 4.69336 15.5418 4.69336 15.3307C4.69336 15.1195 4.86449 14.9484 5.07569 14.9484C5.28684 14.9484 5.45802 15.1195 5.45802 15.3307Z" fill="white"/>
<path d="M5.45802 17.3853C5.45802 17.5964 5.28684 17.7676 5.07569 17.7676C4.86449 17.7676 4.69336 17.5964 4.69336 17.3853C4.69336 17.1742 4.86449 17.0031 5.07569 17.0031C5.28684 17.0031 5.45802 17.1742 5.45802 17.3853Z" fill="white"/>
<path d="M5.45802 21.4928C5.45802 21.7039 5.28684 21.875 5.07569 21.875C4.86449 21.875 4.69336 21.7039 4.69336 21.4928C4.69336 21.2816 4.86449 21.1105 5.07569 21.1105C5.28684 21.1105 5.45802 21.2816 5.45802 21.4928Z" fill="white"/>
<path d="M5.45802 23.5455C5.45802 23.7566 5.28684 23.9277 5.07569 23.9277C4.86449 23.9277 4.69336 23.7566 4.69336 23.5455C4.69336 23.3344 4.86449 23.1632 5.07569 23.1632C5.28684 23.1632 5.45802 23.3344 5.45802 23.5455Z" fill="white"/>
<path d="M5.45802 25.5992C5.45802 25.8103 5.28684 25.9814 5.07569 25.9814C4.86449 25.9814 4.69336 25.8103 4.69336 25.5992C4.69336 25.3881 4.86449 25.2169 5.07569 25.2169C5.28684 25.2169 5.45802 25.3881 5.45802 25.5992Z" fill="white"/>
<path d="M20.0986 13.3504V19.401C20.0986 19.5713 20.2943 19.6666 20.4285 19.5616L21.7278 18.5442C21.7646 18.5152 21.8094 18.5009 21.8538 18.5009C21.8981 18.5009 21.943 18.5152 21.9797 18.5442L23.2791 19.5616C23.4131 19.6666 23.6094 19.5713 23.6094 19.401V15.1508" stroke="white" stroke-miterlimit="10" stroke-linecap="round" stroke-linejoin="round"/>
<path d="M26.8868 9.28913C26.8868 9.93009 26.1709 10.4241 25.9397 10.9815C25.7001 11.5593 25.8479 12.4127 25.4125 12.8481C24.977 13.2835 24.1235 13.1357 23.5457 13.3753C22.9882 13.6065 22.4941 14.3223 21.8531 14.3223C21.212 14.3223 20.718 13.6065 20.1605 13.3753C19.5826 13.1357 18.7291 13.2835 18.2936 12.8481C17.8582 12.4127 18.006 11.5593 17.7664 10.9815C17.5353 10.4241 16.8193 9.93009 16.8193 9.28913C16.8193 8.64817 17.5353 8.15412 17.7664 7.59675C18.006 7.01896 17.8582 6.16558 18.2937 5.73013C18.7292 5.29473 19.5826 5.44256 20.1605 5.20297C20.718 4.97181 21.212 4.256 21.8531 4.256C22.4941 4.256 22.9882 4.97181 23.5457 5.20297C24.1235 5.44261 24.977 5.29473 25.4125 5.73018C25.848 6.16558 25.7001 7.01896 25.9397 7.59675C26.1709 8.15412 26.8868 8.64817 26.8868 9.28913Z" stroke="white" stroke-miterlimit="10" stroke-linecap="round" stroke-linejoin="round"/>
<path d="M21.9362 6.80395L22.7431 8.00894C22.7563 8.02869 22.7761 8.04311 22.799 8.04961L24.1945 8.44444C24.2631 8.46389 24.2901 8.54676 24.2459 8.60282L23.3491 9.74235C23.3344 9.76109 23.3268 9.7844 23.3277 9.80822L23.3834 11.2572C23.3861 11.3285 23.3156 11.3797 23.2486 11.3551L21.8876 10.8544C21.8653 10.8462 21.8407 10.8462 21.8184 10.8544L20.4573 11.3551C20.3904 11.3797 20.3198 11.3285 20.3226 11.2572L20.3782 9.80822C20.3791 9.7844 20.3716 9.76109 20.3568 9.74235L19.46 8.60282C19.4159 8.54676 19.4428 8.46389 19.5115 8.44444L20.9069 8.04961C20.9299 8.04311 20.9497 8.02869 20.9629 8.00894L21.7697 6.80395C21.8094 6.74469 21.8966 6.74469 21.9362 6.80395Z" stroke="white" stroke-miterlimit="10" stroke-linecap="round" stroke-linejoin="round"/>
</g>
</g>
<defs>
<clipPath id="clip0_94_1352">
<rect width="26" height="26" fill="white" transform="translate(2 2)"/>
</clipPath>
</defs>
</svg>
