<svg width="30" height="30" viewBox="0 0 30 30" fill="none" xmlns="http://www.w3.org/2000/svg">
<g clip-path="url(#clip0_94_1405)">
<g clip-path="url(#clip1_94_1405)">
<path d="M17.9028 25.1611C17.1025 25.1611 16.4512 25.8124 16.4512 26.6127C16.4512 27.4131 17.1025 28.0644 17.9028 28.0644C18.7031 28.0644 19.3544 27.4131 19.3544 26.6127C19.3544 25.8124 18.7031 25.1611 17.9028 25.1611ZM17.9028 27.0966C17.6362 27.0966 17.4189 26.8798 17.4189 26.6127C17.4189 26.3456 17.6362 26.1289 17.9028 26.1289C18.1694 26.1289 18.3867 26.3456 18.3867 26.6127C18.3867 26.8798 18.1694 27.0966 17.9028 27.0966Z" fill="white"/>
<path d="M6.29048 25.1611C5.49016 25.1611 4.83887 25.8124 4.83887 26.6127C4.83887 27.4131 5.49016 28.0644 6.29048 28.0644C7.0908 28.0644 7.74209 27.4131 7.74209 26.6127C7.74209 25.8124 7.0908 25.1611 6.29048 25.1611ZM6.29048 27.0966C6.02387 27.0966 5.80661 26.8798 5.80661 26.6127C5.80661 26.3456 6.02387 26.1289 6.29048 26.1289C6.55709 26.1289 6.77435 26.3456 6.77435 26.6127C6.77435 26.8798 6.55709 27.0966 6.29048 27.0966Z" fill="white"/>
<path d="M7.25825 7.74209C8.05858 7.74209 8.70987 7.0908 8.70987 6.29048C8.70987 5.49016 8.05858 4.83887 7.25825 4.83887C6.45793 4.83887 5.80664 5.49016 5.80664 6.29048C5.80664 7.0908 6.45793 7.74209 7.25825 7.74209ZM7.25825 5.80661C7.52487 5.80661 7.74212 6.02338 7.74212 6.29048C7.74212 6.55758 7.52487 6.77435 7.25825 6.77435C6.99164 6.77435 6.77438 6.55758 6.77438 6.29048C6.77438 6.02338 6.99164 5.80661 7.25825 5.80661Z" fill="white"/>
<path d="M26.6127 17.4189C25.8124 17.4189 25.1611 18.0702 25.1611 18.8706C25.1611 19.6709 25.8124 20.3222 26.6127 20.3222C27.4131 20.3222 28.0644 19.6709 28.0644 18.8706C28.0644 18.0702 27.4131 17.4189 26.6127 17.4189ZM26.6127 19.3544C26.3461 19.3544 26.1289 19.1377 26.1289 18.8706C26.1289 18.6035 26.3461 18.3867 26.6127 18.3867C26.8794 18.3867 27.0966 18.6035 27.0966 18.8706C27.0966 19.1377 26.8794 19.3544 26.6127 19.3544Z" fill="white"/>
<path d="M27.0755 15.5192C27.0827 15.346 27.0968 15.1727 27.0968 15C27.0968 12.7945 26.4948 10.6505 25.3645 8.77258C25.8595 7.90161 26.129 6.90823 26.129 5.90129V5.80645C26.129 2.60468 23.5244 0 20.3226 0C18.1752 0 16.3002 1.17484 15.2956 2.9129C13.4197 2.86984 11.5152 3.27 9.81484 4.07564C9.19306 3.35903 8.27855 2.90323 7.25806 2.90323C5.39032 2.90323 3.87097 4.42306 3.87097 6.29032C3.87097 7.01903 4.11194 7.74048 4.54839 8.3221L4.74871 8.58919C3.63048 10.3742 3.00435 12.406 2.92113 14.5161H1.93548C1.40177 14.5161 0.967742 14.9502 0.967742 15.4839V25.1613C0.434032 25.1613 0 25.5953 0 26.129V27.0968C0 27.6305 0.434032 28.0645 0.967742 28.0645H3.23468C3.77952 29.2069 4.94274 30 6.29032 30C7.6379 30 8.80113 29.2069 9.34597 28.0645H14.8476C15.3924 29.2069 16.5556 30 17.9032 30C19.2508 30 20.414 29.2069 20.9589 28.0645H22.2581C22.7918 28.0645 23.2258 27.6305 23.2258 27.0968V25.7642C23.2258 25.6461 23.2113 25.5281 23.1827 25.4119L22.8731 24.1732C23.594 23.5544 24.2371 22.8566 24.7931 22.0892L26.6129 24.5163L29.3226 20.9032C29.7595 20.3211 30 19.5992 30 18.871C30 17.161 28.7245 15.7461 27.0755 15.5192ZM20.3226 0.967742C22.9906 0.967742 25.1613 3.13839 25.1613 5.80645V5.90081C25.1613 6.97984 24.794 8.04193 24.1273 8.89016L20.3226 13.7332L16.5179 8.89016C15.8511 8.04193 15.4839 6.98032 15.4839 5.90081V5.80645C15.4839 3.13839 17.6545 0.967742 20.3226 0.967742ZM7.25806 3.87097C8.5921 3.87097 9.67742 4.95629 9.67742 6.29032C9.67742 6.81048 9.50564 7.32629 9.19355 7.74145L7.25806 10.3224L5.32258 7.74145C5.01048 7.32629 4.83871 6.81048 4.83871 6.29032C4.83871 4.95629 5.92403 3.87097 7.25806 3.87097ZM1.93548 15.4839H5.80645V19.17L8.22581 17.9603L10.6452 19.17V15.4839H14.5161V25.1613H9.34597C8.80113 24.0189 7.6379 23.2258 6.29032 23.2258C4.94274 23.2258 3.77952 24.0189 3.23468 25.1613H1.93548V15.4839ZM6.77419 15.4839H9.67742V17.6042L8.22581 16.8784L6.77419 17.6042V15.4839ZM15.4839 18.3871H20.0506C20.2727 18.3871 20.4663 18.5381 20.52 18.7534L20.6705 19.3548H18.3871C17.8534 19.3548 17.4194 19.7889 17.4194 20.3226V21.2903C17.4194 21.824 17.8534 22.2581 18.3871 22.2581H21.3963L22.1221 25.1613H20.9589C20.414 24.0189 19.2508 23.2258 17.9032 23.2258C16.9558 23.2258 16.0994 23.6177 15.4839 24.2473V18.3871ZM21.1544 21.2903H18.3871V20.3226H20.9124L21.1544 21.2903ZM0.967742 27.0968V26.129H2.94194C2.91919 26.2877 2.90323 26.4484 2.90323 26.6129C2.90323 26.7774 2.91919 26.9381 2.94194 27.0968H0.967742ZM6.29032 29.0323C4.95629 29.0323 3.87097 27.9469 3.87097 26.6129C3.87097 25.2789 4.95629 24.1935 6.29032 24.1935C7.62435 24.1935 8.70968 25.2789 8.70968 26.6129C8.70968 27.9469 7.62435 29.0323 6.29032 29.0323ZM9.63871 27.0968C9.66145 26.9381 9.67742 26.7774 9.67742 26.6129C9.67742 26.4484 9.66145 26.2877 9.63871 26.129H14.5548C14.5321 26.2877 14.5161 26.4484 14.5161 26.6129C14.5161 26.7774 14.5321 26.9381 14.5548 27.0968H9.63871ZM17.9032 29.0323C16.5692 29.0323 15.4839 27.9469 15.4839 26.6129C15.4839 25.2789 16.5692 24.1935 17.9032 24.1935C19.2373 24.1935 20.3226 25.2789 20.3226 26.6129C20.3226 27.9469 19.2373 29.0323 17.9032 29.0323ZM21.2516 27.0968C21.2744 26.9381 21.2903 26.7774 21.2903 26.6129C21.2903 26.4484 21.2744 26.2877 21.2516 26.129H22.2581V27.0968H21.2516ZM22.6089 23.1169L21.4592 18.5187C21.2971 17.8718 20.7179 17.4194 20.0506 17.4194H15.4839V15.4839C15.4839 14.9502 15.0498 14.5161 14.5161 14.5161H3.88839C3.96581 12.7132 4.47097 10.9732 5.37242 9.42145L7.25806 11.9356L9.96774 8.32258C10.4047 7.74048 10.6452 7.01855 10.6452 6.29032C10.6452 5.79242 10.5344 5.32064 10.3403 4.89435C11.7581 4.23774 13.2726 3.89516 14.8529 3.87532C14.639 4.48065 14.5161 5.12855 14.5161 5.80645V5.90081C14.5161 7.19613 14.9569 8.47064 15.7568 9.48822L20.3226 15.299L24.7597 9.65177C25.6563 11.2853 26.129 13.1192 26.129 15C26.129 15.1747 26.1155 15.3503 26.1077 15.526C24.4795 15.7713 23.2258 17.1755 23.2258 18.871C23.2258 19.5997 23.4668 20.3211 23.9032 20.9027L24.1824 21.2753C23.7242 21.9445 23.2002 22.5629 22.6089 23.1169ZM28.5484 20.3221L26.6129 22.9031L24.6774 20.3221C24.3653 19.9069 24.1935 19.3911 24.1935 18.871C24.1935 17.5369 25.2789 16.4516 26.6129 16.4516C27.9469 16.4516 29.0323 17.5369 29.0323 18.871C29.0323 19.3911 28.8605 19.9069 28.5484 20.3221Z" fill="white"/>
<path d="M20.3221 9.67748C22.4565 9.67748 24.1931 7.94087 24.1931 5.80651C24.1931 3.67216 22.4565 1.93555 20.3221 1.93555C18.1878 1.93555 16.4512 3.67216 16.4512 5.80651C16.4512 7.94087 18.1878 9.67748 20.3221 9.67748ZM20.3221 2.90329C21.9233 2.90329 23.2254 4.20538 23.2254 5.80651C23.2254 7.40764 21.9233 8.70974 20.3221 8.70974C18.721 8.70974 17.4189 7.40764 17.4189 5.80651C17.4189 4.20538 18.721 2.90329 20.3221 2.90329Z" fill="white"/>
<path d="M11.6133 12.5811H12.581V13.5488H11.6133V12.5811Z" fill="white"/>
<path d="M13.5488 12.5811H14.5166V13.5488H13.5488V12.5811Z" fill="white"/>
<path d="M15.4844 12.5811H16.4521V13.5488H15.4844V12.5811Z" fill="white"/>
</g>
</g>
<defs>
<clipPath id="clip0_94_1405">
<rect width="30" height="30" fill="white"/>
</clipPath>
<clipPath id="clip1_94_1405">
<rect width="30" height="30" fill="white"/>
</clipPath>
</defs>
</svg>
