<svg width="30" height="30" viewBox="0 0 30 30" fill="none" xmlns="http://www.w3.org/2000/svg">
<g clip-path="url(#clip0_94_1324)">
<path d="M23.687 18.4815C23.0982 17.2541 20.992 15.5503 18.957 13.904C17.822 12.9865 16.7495 12.119 16.0658 11.4353C15.8945 11.2628 15.6383 11.2078 15.412 11.289C14.9908 11.4416 14.7308 11.559 14.5258 11.6503C14.2133 11.7902 14.1083 11.8378 13.687 11.8802C13.5008 11.899 13.3333 11.999 13.2295 12.154C12.3458 13.4752 11.4308 13.3627 10.8195 13.1578C10.6245 13.0928 10.5895 13.009 10.5708 12.929C10.4395 12.3803 11.0983 11.1028 11.952 10.249C13.9833 8.2165 15.0308 7.70773 17.2433 8.6965C19.7532 9.81898 22.2683 10.6978 22.2933 10.7065C22.6221 10.8202 22.9758 10.6477 23.0895 10.3215C23.202 9.99523 23.0307 9.63898 22.7045 9.52525C22.6795 9.51652 20.2145 8.65525 17.7545 7.55398C14.8883 6.27271 13.3157 7.11646 11.0695 9.364C10.2145 10.219 9.0532 11.949 9.3532 13.2178C9.48194 13.7578 9.86197 14.1578 10.4269 14.344C11.8432 14.8115 13.1357 14.364 14.0982 13.0865C14.4957 13.0253 14.712 12.9353 15.0369 12.789C15.1544 12.7365 15.2919 12.6753 15.4744 12.6015C16.1895 13.2728 17.1544 14.054 18.1707 14.8753C20.0082 16.3615 22.092 18.0465 22.5607 19.0215C22.792 19.5028 22.5432 19.8165 22.3744 19.9603C22.1269 20.1728 21.7882 20.2403 21.6045 20.1115C21.402 19.9727 21.1382 19.964 20.9295 20.089C20.7195 20.214 20.602 20.4502 20.6282 20.6927C20.6707 21.0903 20.307 21.3178 20.1495 21.3965C19.7494 21.599 19.332 21.564 19.1757 21.419C19.0007 21.2565 18.7494 21.209 18.5269 21.2915C18.3045 21.3752 18.1494 21.5803 18.1269 21.8177C18.0894 22.2277 17.7857 22.6215 17.3894 22.7752C17.1981 22.8477 16.9206 22.8915 16.6719 22.664C16.5169 22.524 16.3019 22.4702 16.1007 22.5189C15.897 22.5689 15.7332 22.7165 15.6619 22.9127C15.6382 22.9752 15.5844 23.1252 14.9994 23.1252C14.5832 23.1252 13.8344 22.844 13.4682 22.6014C13.0294 22.3127 10.2782 20.2602 7.90195 18.2702C7.5682 17.9889 6.9907 17.3864 6.4807 16.8539C6.02818 16.3814 5.61445 15.9527 5.40194 15.7727C5.13569 15.5477 4.74194 15.5814 4.52069 15.8465C4.2982 16.1102 4.33067 16.5052 4.59445 16.7277C4.78822 16.8915 5.16322 17.2877 5.57695 17.7189C6.13447 18.3014 6.71069 18.9039 7.09822 19.229C9.42574 21.1777 12.2232 23.2815 12.7807 23.6477C13.2407 23.9502 14.232 24.3752 14.9995 24.3752C15.6157 24.3752 16.0895 24.2339 16.4182 23.9577C16.8582 24.129 17.3582 24.1302 17.8395 23.9427C18.4082 23.7227 18.8757 23.279 19.1407 22.7415C19.6332 22.8465 20.197 22.7727 20.7094 22.5153C21.2107 22.2628 21.5732 21.8765 21.7532 21.4252C22.2507 21.4515 22.7631 21.2752 23.1869 20.9115C23.9045 20.2978 24.102 19.3428 23.687 18.4815Z" fill="white"/>
<path d="M12.5 8.125H6.87502C6.53002 8.125 6.25 8.40502 6.25 8.75002C6.25 9.09502 6.53002 9.37504 6.87502 9.37504H12.5C12.845 9.37504 13.125 9.09502 13.125 8.75002C13.125 8.40502 12.845 8.125 12.5 8.125Z" fill="white"/>
<path d="M25.5191 17.1514C25.3253 16.8652 24.9378 16.7864 24.6516 16.9814L22.8241 18.2089C22.5379 18.4014 22.4616 18.7901 22.6542 19.0764C22.7754 19.2551 22.9729 19.3526 23.1742 19.3526C23.2929 19.3526 23.4142 19.3189 23.5217 19.2464L25.3492 18.0189C25.6353 17.8264 25.7116 17.4377 25.5191 17.1514Z" fill="white"/>
<path d="M21.6388 20.1335C21.1913 19.781 19.19 17.7323 17.9525 16.4423C17.7138 16.1923 17.3176 16.1836 17.0688 16.4236C16.8188 16.6623 16.8113 17.0585 17.05 17.3073C17.3713 17.6423 20.205 20.5961 20.8638 21.1161C20.9775 21.2061 21.115 21.2499 21.25 21.2499C21.4338 21.2499 21.6175 21.1674 21.7425 21.0111C21.9563 20.741 21.9101 20.3473 21.6388 20.1335Z" fill="white"/>
<path d="M19.1409 21.3871C18.3922 20.7883 16.511 18.7896 16.0859 18.3271C15.8509 18.0721 15.4571 18.0571 15.2021 18.2896C14.9484 18.5233 14.9309 18.9196 15.1646 19.1734C15.1871 19.1971 17.4322 21.6209 18.3596 22.3634C18.4747 22.4546 18.6134 22.4996 18.7496 22.4996C18.9322 22.4996 19.1146 22.4183 19.2384 22.2659C19.4535 21.9958 19.4097 21.6021 19.1409 21.3871Z" fill="white"/>
<path d="M16.6542 22.6464C15.7629 21.8952 13.9392 19.9539 13.5829 19.5727C13.3467 19.3202 12.9504 19.3064 12.6991 19.5427C12.4467 19.7789 12.4341 20.1739 12.6691 20.4264C13.1817 20.9752 14.9266 22.8252 15.8479 23.6027C15.9654 23.7014 16.1079 23.7502 16.2504 23.7502C16.4279 23.7502 16.6054 23.6739 16.7292 23.5277C16.9516 23.2627 16.9179 22.8689 16.6542 22.6464Z" fill="white"/>
<path d="M7.305 7.04587C6.23373 6.03085 1.95 5.70208 0.66252 5.62585C0.485039 5.61712 0.32127 5.67583 0.196289 5.7946C0.07125 5.91208 0 6.07708 0 6.24958V17.4996C0 17.8446 0.28002 18.1246 0.62502 18.1246H4.37502C4.64502 18.1246 4.88502 17.9509 4.96875 17.6933C5.05998 17.4133 7.21377 10.8034 7.49748 7.55335C7.51377 7.36333 7.44375 7.17583 7.305 7.04587ZM3.91875 16.8746H1.24998V6.9196C3.25875 7.07833 5.42625 7.42333 6.21375 7.80583C5.88252 10.5433 4.38375 15.4071 3.91875 16.8746Z" fill="white"/>
<path d="M29.3752 6.875C24.4677 6.875 21.7452 8.13125 21.6314 8.18375C21.469 8.25998 21.3477 8.40125 21.2977 8.57252C21.2477 8.74379 21.2727 8.92754 21.3664 9.08C22.1389 10.3238 24.5577 17.2313 25.0227 18.9163C25.0977 19.1875 25.3439 19.375 25.6252 19.375H29.3752C29.7202 19.375 30.0002 19.095 30.0002 18.75V7.49996C30.0002 7.15373 29.7202 6.875 29.3752 6.875ZM28.7502 18.125H26.0927C25.5002 16.195 23.7502 11.1625 22.774 9.08252C23.7277 8.75879 25.7765 8.2025 28.7502 8.13254V18.125Z" fill="white"/>
</g>
<defs>
<clipPath id="clip0_94_1324">
<rect width="30" height="30" fill="white"/>
</clipPath>
</defs>
</svg>
